<svg xmlns="http://www.w3.org/2000/svg" viewBox="0 0 341.67 120.89"><defs><style>.cls-1{font-size:24px;font-family:Verdana-Bold, Verdana;font-weight:700;letter-spacing:-0.05em;}.cls-1,.cls-2,.cls-3{fill:#00aeef;}.cls-2{stroke:#00aeef;stroke-miterlimit:10;stroke-width:2px;}</style></defs><g id="Layer_2" data-name="Layer 2"><g id="Layer_1-2" data-name="Layer 1"><text class="cls-1" transform="translate(20.72 92.81) rotate(-90)">team</text><polygon class="cls-2" points="109.01 4.83 34.02 59.39 56.69 65.5 18.73 116.17 93.71 61.61 70.48 55.35 109.01 4.83"/><polyline class="cls-3" points="304.97 53.81 293.58 53.81 293.58 81.06 280.25 81.06 280.25 89.71 319.63 89.71 319.63 81.06 304.97 81.06 304.97 58.58"/><polygon class="cls-3" points="340.38 31.78 341.67 31.82 326.09 42.8 341.67 53.78 340.38 53.81 304.96 53.81 304.96 31.78 340.38 31.78"/><path class="cls-3" d="M130.32,89.78V60.37q0-7.42-5.51-7.42a7.87,7.87,0,0,0-5.27,2.22,38.57,38.57,0,0,0-5.31,6V89.78H103.39V27h10.84V42.46l-.53,8.18a30.72,30.72,0,0,1,2.8-3,15.49,15.49,0,0,1,3.06-2.2,14.9,14.9,0,0,1,3.56-1.35,17.81,17.81,0,0,1,4.22-.47,15,15,0,0,1,6,1.13,11.73,11.73,0,0,1,4.31,3.2,13.74,13.74,0,0,1,2.6,5,22.69,22.69,0,0,1,.87,6.51v30.3Z"/><path class="cls-3" d="M176.18,89.78l-.27-5.91a29.85,29.85,0,0,1-3,2.78,18.85,18.85,0,0,1-3.42,2.2,18.29,18.29,0,0,1-4.07,1.44,21.28,21.28,0,0,1-4.82.51,16.66,16.66,0,0,1-6.08-1,12.25,12.25,0,0,1-4.4-2.84,11.87,11.87,0,0,1-2.69-4.4,16.89,16.89,0,0,1-.91-5.69,13.09,13.09,0,0,1,1.35-5.91A12.61,12.61,0,0,1,152,66.28,21.52,21.52,0,0,1,159,63.21a38,38,0,0,1,9.75-1.11h5.91V59.39a9.35,9.35,0,0,0-.49-3.13,5.51,5.51,0,0,0-1.58-2.38,7.42,7.42,0,0,0-2.82-1.51,14.46,14.46,0,0,0-4.26-.53,34.3,34.3,0,0,0-7.89.91,41.73,41.73,0,0,0-7.53,2.55V46.64a42.8,42.8,0,0,1,7.49-2.13,44.43,44.43,0,0,1,8.82-.85,33.83,33.83,0,0,1,8.62,1,15.55,15.55,0,0,1,5.93,2.86,11.47,11.47,0,0,1,3.44,4.78A18.46,18.46,0,0,1,185.46,59V89.78Zm-1.56-20H168a17.42,17.42,0,0,0-4.67.54,8.9,8.9,0,0,0-3.11,1.46A5.68,5.68,0,0,0,158.47,74a6.2,6.2,0,0,0-.56,2.6,5.1,5.1,0,0,0,1.78,4.19,7.41,7.41,0,0,0,4.84,1.45,8.52,8.52,0,0,0,4.71-1.64,34.14,34.14,0,0,0,5.38-4.71Z"/><path class="cls-3" d="M221.3,89.78,204.64,67.21V89.78H193.8V27h10.84V63.74l15.77-19.1H234L215.66,65.21l19.82,24.57Z"/><path class="cls-3" d="M276.07,89.34q-2.93.66-5.91,1.07a43.39,43.39,0,0,1-5.64.39,27.9,27.9,0,0,1-7.67-.93A13.41,13.41,0,0,1,251.52,87a11.37,11.37,0,0,1-3.11-4.87,21.92,21.92,0,0,1-1-7v-22H235.28V44.64h12.13V33.09l11.11-2.89V44.64h17.55v8.44H258.52V74.32q0,3.87,1.78,5.84c1.18,1.32,3.17,2,5.95,2a30.66,30.66,0,0,0,5.2-.44c1.69-.3,3.23-.64,4.62-1Z"/></g></g></svg>